<svg xmlns="http://www.w3.org/2000/svg" enable-background="new 0 0 64 64" viewBox="0 0 64 64" id="checklist"><path d="M50.64,6.63h-8.36l-0.29-0.96c-0.25-0.83-1.01-1.39-1.88-1.39h-2.84C36.76,1.82,34.6,0,32,0c-2.6,0-4.76,1.82-5.27,4.28
		h-2.84c-0.87,0-1.62,0.56-1.88,1.39l-0.3,0.96h-8.35c-2.03,0-3.68,1.68-3.68,3.75v49.88c0,2.07,1.65,3.75,3.68,3.75h37.28
		c2.02,0,3.67-1.68,3.67-3.75V10.38C54.31,8.31,52.67,6.63,50.64,6.63z M27.59,6.22c0.52,0,0.95-0.41,0.97-0.94
		c0.06-1.87,1.57-3.34,3.44-3.34c1.87,0,3.38,1.47,3.44,3.34c0.02,0.52,0.45,0.94,0.97,0.94h3.7L41.26,10L22.72,9.97l1.17-3.75
		H27.59z M52.38,60.25c0,1-0.78,1.81-1.73,1.81H13.37c-0.96,0-1.74-0.81-1.74-1.81V10.38c0-1,0.78-1.81,1.74-1.81h7.76L20.87,9.4
		c-0.18,0.6-0.08,1.24,0.3,1.74c0.37,0.51,0.95,0.8,1.58,0.8h18.52c0.63,0,1.21-0.29,1.58-0.8c0.37-0.51,0.48-1.14,0.3-1.74
		l-0.26-0.83h7.76c0.96,0,1.73,0.81,1.73,1.81V60.25z"></path><path d="M46.83 19.73c-.15-.37-.5-.61-.9-.61-.4 0-.75.24-.9.61l-2.69 6.7c-.05.12-.07.24-.07.36v24.43c0 2.02 1.64 3.65 3.66 3.65 2.02 0 3.65-1.64 3.65-3.65V26.8c0-.12-.02-.25-.07-.36L46.83 19.73zM44.21 27.77h3.43V46.9h-3.43V27.77zM45.93 22.7l1.25 3.13h-2.5L45.93 22.7zM45.93 52.94c-.95 0-1.71-.77-1.71-1.72v-2.38h3.43v2.38C47.64 52.17 46.88 52.94 45.93 52.94zM21.17 17.61l-3.93 3.93-1.16-1.16c-.38-.38-.99-.38-1.37 0-.38.38-.38.99 0 1.37l1.85 1.85c.19.19.44.28.69.28.25 0 .5-.09.69-.28l4.62-4.62c.38-.38.38-.99 0-1.37C22.16 17.23 21.55 17.23 21.17 17.61zM35.48 19.63H25.32c-.54 0-.97.43-.97.97 0 .54.43.97.97.97h10.16c.54 0 .97-.43.97-.97C36.45 20.07 36.02 19.63 35.48 19.63zM21.17 28.54l-3.93 3.93-1.16-1.16c-.38-.38-.99-.38-1.37 0-.38.38-.38.99 0 1.37l1.85 1.85c.18.18.43.28.69.28.26 0 .5-.1.69-.28l4.62-4.62c.38-.38.38-.99 0-1.37C22.16 28.16 21.55 28.16 21.17 28.54zM35.48 30.56H25.32c-.54 0-.97.43-.97.97 0 .54.43.97.97.97h10.16c.54 0 .97-.43.97-.97C36.45 31 36.02 30.56 35.48 30.56zM21.17 39.47l-3.93 3.93-1.16-1.16c-.38-.38-.99-.38-1.37 0-.38.38-.38.99 0 1.37l1.85 1.85c.18.18.43.28.69.28.26 0 .5-.1.69-.28l4.62-4.62c.38-.38.38-.99 0-1.37C22.16 39.09 21.55 39.09 21.17 39.47zM35.48 41.5H25.32c-.54 0-.97.43-.97.97 0 .54.43.97.97.97h10.16c.54 0 .97-.43.97-.97C36.45 41.93 36.02 41.5 35.48 41.5zM21.17 50.41l-3.93 3.93-1.16-1.16c-.38-.38-.99-.38-1.37 0-.38.38-.38.99 0 1.37l1.85 1.85c.19.19.44.28.69.28.25 0 .5-.09.69-.28l4.62-4.62c.38-.38.38-.99 0-1.37C22.16 50.03 21.55 50.03 21.17 50.41zM35.48 52.43H25.32c-.54 0-.97.43-.97.97 0 .54.43.97.97.97h10.16c.54 0 .97-.43.97-.97C36.45 52.86 36.02 52.43 35.48 52.43z"></path></svg>