<svg xmlns="http://www.w3.org/2000/svg" data-name="Layer 1" viewBox="0 0 32 32" id="worker"><path d="M24.5,25H22a3.189,3.189,0,0,1-2.96-3.093l1.361-.99a5.512,5.512,0,0,0,2.054-2.937l.133-.467a2.232,2.232,0,0,0,.257.029,2.189,2.189,0,0,0,.926-4.172l.123-.43A1.491,1.491,0,0,0,24,10.092V10a7.942,7.942,0,0,0-2.347-5.653A6.885,6.885,0,0,0,21,3.791V3.5A1.5,1.5,0,0,0,19.5,2H18.192l-.009-.074a2.2,2.2,0,0,0-4.365,0L13.808,2H12.5A1.5,1.5,0,0,0,11,3.5v.288A7.969,7.969,0,0,0,8,10v.092a1.491,1.491,0,0,0,.106,2.849l.123.43a2.189,2.189,0,0,0,.926,4.172,2.232,2.232,0,0,0,.257-.029l.133.467A5.512,5.512,0,0,0,11.6,20.917l1.361.99A3.189,3.189,0,0,1,10,25H7.5A4.5,4.5,0,0,0,3,29.5v2a.5.5,0,0,0,.5.5h25a.5.5,0,0,0,.5-.5v-2A4.5,4.5,0,0,0,24.5,25ZM24,15.62a1.177,1.177,0,0,1-1.133.9l.616-2.155A1.183,1.183,0,0,1,24,15.62ZM11,5.13V6.5a.5.5,0,0,0,1,0v-3a.5.5,0,0,1,.5-.5h1.129a.5.5,0,0,0,.046.067L13,8.438A.5.5,0,0,0,13.438,9,.51.51,0,0,0,14,8.562L14.81,2.05a1.2,1.2,0,0,1,2.381,0L18,8.562A.5.5,0,0,0,18.5,9a.524.524,0,0,0,.063,0A.5.5,0,0,0,19,8.438l-.675-5.4c.008-.012.019-.021.027-.033H19.5a.5.5,0,0,1,.5.5v3a.5.5,0,0,0,1,0V5.113A6.947,6.947,0,0,1,23,10H9A6.976,6.976,0,0,1,11,5.13ZM8.5,11h15a.5.5,0,0,1,0,1H8.5a.5.5,0,0,1,0-1ZM8,15.621a1.184,1.184,0,0,1,.517-1.256l.616,2.155A1.177,1.177,0,0,1,8,15.621Zm2.511,2.085L9.163,13H22.837l-1.344,4.706a4.524,4.524,0,0,1-1.681,2.4l-2.342,1.7a2.494,2.494,0,0,1-2.941,0l-2.342-1.7A4.524,4.524,0,0,1,10.507,17.706Zm3.374,4.871.061.044a3.49,3.49,0,0,0,4.117,0l.061-.044a4.388,4.388,0,0,0,2.165,2.973,4.971,4.971,0,0,1-8.569,0A4.388,4.388,0,0,0,13.881,22.577ZM28,31H4V29.5A3.5,3.5,0,0,1,7.5,26H10a3.606,3.606,0,0,0,.777-.085,5.963,5.963,0,0,0,10.446,0A3.606,3.606,0,0,0,22,26h2.5A3.5,3.5,0,0,1,28,29.5Z"></path></svg>