<svg xmlns="http://www.w3.org/2000/svg" viewBox="0 0 64 64" id="back"><path fill="#222" d="M55.991 36.458a16.441 16.441 0 0 1-16.42 16.43H10.009a2 2 0 0 1 0-4h29.562a12.425 12.425 0 0 0 0-24.849h-23.98l6.545 5.381a2 2 0 1 1-2.54 3.09L8.739 23.583c-.024-.02-.042-.044-.065-.065a1.906 1.906 0 0 1-.148-.15l-.016-.015c-.014-.016-.032-.028-.046-.044v-.006c-.021-.025-.036-.054-.055-.08a1.759 1.759 0 0 1-.109-.163c-.008-.013-.019-.025-.026-.039s-.025-.033-.034-.051-.021-.054-.033-.08a2.135 2.135 0 0 1-.072-.178l-.007-.018a1.735 1.735 0 0 1-.087-.353c-.006-.037-.018-.072-.021-.109s0-.071 0-.106-.009-.057-.009-.087.008-.058.009-.088v-.105c0-.035.015-.073.021-.11a1.727 1.727 0 0 1 .087-.353l.007-.018c.022-.061.045-.12.072-.178.012-.026.019-.054.033-.08s.024-.033.034-.051.018-.026.026-.039a1.759 1.759 0 0 1 .107-.163c.019-.026.034-.055.055-.08v-.005c.02-.025.045-.042.066-.066.046-.05.093-.1.144-.144.023-.021.041-.045.065-.065l.01-.009L19.6 11.567a2 2 0 1 1 2.54 3.09l-6.545 5.382h23.98a16.438 16.438 0 0 1 16.416 16.419Z"></path></svg>