<svg width="278" height="60" viewBox="0 0 278 60" fill="none" xmlns="http://www.w3.org/2000/svg">
<g clip-path="url(#clip0_292_2417)">
<path d="M95.5416 25.9404C96.1204 26.5182 96.5664 27.2345 96.8799 28.0892C97.1938 28.944 97.3505 29.9552 97.3505 31.123C97.3505 32.1583 97.1906 33.1123 96.8711 33.9851C96.5576 34.8519 96.1021 35.5953 95.5054 36.2153C94.8903 36.8532 94.1698 37.335 93.3439 37.6599C92.524 37.9789 91.6225 38.1385 90.6398 38.1385C89.7897 38.1385 88.9817 38.0571 88.2162 37.8946C87.4504 37.7322 86.8055 37.5396 86.2808 37.3167V35.3396H86.4256C86.9137 35.7308 87.5288 36.0438 88.2703 36.2785C89.0179 36.5073 89.8167 36.6217 90.6669 36.6217C91.4085 36.6217 92.0868 36.4922 92.7018 36.2332C93.3169 35.9683 93.8293 35.6104 94.2394 35.1589C94.6735 34.6773 94.9989 34.1356 95.2161 33.5337C95.439 32.9257 95.5507 32.2365 95.5507 31.466H88.1979V29.904H95.46C95.3757 29.1878 95.195 28.5678 94.9177 28.0441C94.6401 27.5144 94.2876 27.078 93.8595 26.7349C93.4314 26.3918 92.9461 26.139 92.4034 25.9765C91.8608 25.8079 91.282 25.7237 90.6669 25.7237C89.841 25.7237 89.0664 25.841 88.3427 26.0758C87.6191 26.3045 86.9953 26.6205 86.4705 27.0238H86.317V25.0375C86.8775 24.8027 87.5407 24.6071 88.3065 24.4506C89.0724 24.2881 89.8561 24.2068 90.6581 24.2068C91.6949 24.2068 92.6203 24.3513 93.4343 24.6402C94.2542 24.9291 94.9568 25.3625 95.5416 25.9404ZM109.323 37.8946H107.623V29.2359H103.852C103.834 29.7355 103.816 30.2171 103.798 30.6805C103.779 31.144 103.761 31.5624 103.743 31.9356C103.701 32.9408 103.632 33.7444 103.535 34.3463C103.439 34.9422 103.312 35.4389 103.155 35.8361C103.011 36.2094 102.848 36.5132 102.667 36.748C102.492 36.9768 102.302 37.1845 102.097 37.3711C101.892 37.5515 101.663 37.6869 101.41 37.7771C101.163 37.8676 100.891 37.9125 100.596 37.9125C100.494 37.9125 100.343 37.9097 100.144 37.9038C99.9509 37.8978 99.8244 37.8946 99.7639 37.8946V36.4139H99.8543C99.9028 36.4139 99.972 36.4168 100.062 36.4231C100.153 36.429 100.228 36.4318 100.288 36.4318C100.433 36.4318 100.581 36.4108 100.731 36.3687C100.888 36.3266 101.021 36.2483 101.13 36.1339C101.437 35.8329 101.684 35.3245 101.871 34.6081C102.058 33.8918 102.182 32.8565 102.242 31.5022C102.266 31.0086 102.287 30.4247 102.305 29.7506C102.329 29.0704 102.35 28.4233 102.369 27.8093H109.323V37.8946ZM122.246 33.0281H114.803C114.803 33.6481 114.896 34.1898 115.083 34.6533C115.27 35.1108 115.526 35.4869 115.852 35.782C116.165 36.0708 116.536 36.2876 116.964 36.4318C117.398 36.5764 117.874 36.6487 118.393 36.6487C119.08 36.6487 119.771 36.5132 120.464 36.2424C121.163 35.9655 121.661 35.6946 121.956 35.4297H122.047V37.2806C121.474 37.5213 120.889 37.7231 120.292 37.8855C119.695 38.048 119.068 38.1294 118.411 38.1294C116.735 38.1294 115.426 37.6778 114.486 36.775C113.545 35.8662 113.075 34.578 113.075 32.9107C113.075 31.2614 113.524 29.9522 114.423 28.9831C115.327 28.014 116.515 27.5295 117.986 27.5295C119.349 27.5295 120.398 27.9267 121.133 28.7213C121.875 29.5158 122.246 30.6444 122.246 32.1071V33.0281ZM120.591 31.7279C120.585 30.837 120.358 30.1478 119.912 29.6603C119.472 29.1727 118.8 28.9289 117.895 28.9289C116.985 28.9289 116.259 29.1968 115.716 29.7325C115.179 30.2682 114.875 30.9333 114.803 31.7279H120.591ZM135.051 37.8946H132.826L128.63 33.2718H127.707V37.8946H126.007V27.8093H127.707V32.1613C128.268 32.1613 128.72 32.062 129.064 31.8633C129.407 31.6587 129.7 31.3336 129.941 30.8882C130.025 30.7257 130.107 30.5541 130.185 30.3736C130.269 30.187 130.351 30.0094 130.429 29.8409C130.743 29.1607 131.135 28.652 131.605 28.315C132.075 27.9779 132.75 27.8093 133.631 27.8093H134.409V29.272H133.658C133.182 29.272 132.808 29.3744 132.536 29.579C132.271 29.7777 132.03 30.1298 131.813 30.6354C131.572 31.2012 131.315 31.6256 131.044 31.9085C130.779 32.1853 130.495 32.396 130.194 32.5405L135.051 37.8946ZM145.432 29.2991H141.778V37.8946H140.078V29.2991H136.424V27.8093H145.432V29.2991ZM157.196 32.7301C157.196 33.5487 157.079 34.2981 156.844 34.9783C156.609 35.6525 156.277 36.2245 155.849 36.6939C155.451 37.1392 154.981 37.4852 154.438 37.7322C153.902 37.9729 153.332 38.0932 152.729 38.0932C152.204 38.0932 151.728 38.036 151.3 37.9217C150.878 37.8073 150.447 37.6297 150.007 37.389V41.6146H148.306V27.8093H150.007V28.8657C150.459 28.4865 150.966 28.1705 151.526 27.9177C152.093 27.6589 152.696 27.5295 153.335 27.5295C154.553 27.5295 155.499 27.9899 156.175 28.9109C156.856 29.8258 157.196 31.0989 157.196 32.7301ZM155.442 32.7752C155.442 31.5593 155.234 30.6504 154.818 30.0485C154.402 29.4466 153.763 29.1456 152.901 29.1456C152.412 29.1456 151.921 29.251 151.427 29.4616C150.932 29.6723 150.459 29.9492 150.007 30.2923V36.0076C150.489 36.2245 150.902 36.3718 151.246 36.4501C151.595 36.5283 151.99 36.5673 152.43 36.5673C153.377 36.5673 154.116 36.2483 154.646 35.6104C155.177 34.9723 155.442 34.0272 155.442 32.7752ZM169.567 32.8565C169.567 34.4998 169.145 35.7971 168.301 36.748C167.457 37.6989 166.326 38.1746 164.91 38.1746C163.481 38.1746 162.344 37.6989 161.5 36.748C160.662 35.7971 160.243 34.4998 160.243 32.8565C160.243 31.2132 160.662 29.9161 161.5 28.965C162.344 28.008 163.481 27.5295 164.91 27.5295C166.326 27.5295 167.457 28.008 168.301 28.965C169.145 29.9161 169.567 31.2132 169.567 32.8565ZM167.813 32.8565C167.813 31.5503 167.557 30.5812 167.044 29.9492C166.532 29.3111 165.82 28.9921 164.91 28.9921C163.987 28.9921 163.27 29.3111 162.757 29.9492C162.251 30.5812 161.998 31.5503 161.998 32.8565C161.998 34.1205 162.254 35.0806 162.766 35.7368C163.279 36.3869 163.993 36.7118 164.91 36.7118C165.814 36.7118 166.523 36.3897 167.035 35.7459C167.553 35.0957 167.813 34.1326 167.813 32.8565ZM180.744 29.2991H177.09V37.8946H175.39V29.2991H171.737V27.8093H180.744V29.2991ZM192.509 32.7301C192.509 33.5487 192.392 34.2981 192.157 34.9783C191.921 35.6525 191.59 36.2245 191.162 36.6939C190.764 37.1392 190.294 37.4852 189.751 37.7322C189.214 37.9729 188.645 38.0932 188.041 38.0932C187.517 38.0932 187.041 38.036 186.613 37.9217C186.191 37.8073 185.759 37.6297 185.319 37.389V41.6146H183.619V27.8093H185.319V28.8657C185.771 28.4865 186.278 28.1705 186.839 27.9177C187.405 27.6589 188.008 27.5295 188.647 27.5295C189.865 27.5295 190.812 27.9899 191.487 28.9109C192.169 29.8258 192.509 31.0989 192.509 32.7301ZM190.755 32.7752C190.755 31.5593 190.547 30.6504 190.13 30.0485C189.715 29.4466 189.075 29.1456 188.213 29.1456C187.725 29.1456 187.234 29.251 186.739 29.4616C186.245 29.6723 185.771 29.9492 185.319 30.2923V36.0076C185.802 36.2245 186.215 36.3718 186.558 36.4501C186.908 36.5283 187.303 36.5673 187.743 36.5673C188.69 36.5673 189.428 36.2483 189.959 35.6104C190.489 34.9723 190.755 34.0272 190.755 32.7752ZM204.12 37.8946H202.429V36.8203C202.278 36.9224 202.073 37.0669 201.814 37.2536C201.561 37.4343 201.314 37.5785 201.073 37.6869C200.789 37.8255 200.464 37.9399 200.096 38.0301C199.728 38.1262 199.297 38.1746 198.803 38.1746C197.892 38.1746 197.121 37.8736 196.487 37.2715C195.854 36.6697 195.538 35.9024 195.538 34.9693C195.538 34.2048 195.701 33.5878 196.026 33.1183C196.358 32.6428 196.828 32.2696 197.437 31.9988C198.052 31.7279 198.79 31.5443 199.653 31.448C200.515 31.3517 201.44 31.2795 202.429 31.2313V30.9695C202.429 30.5842 202.36 30.2652 202.221 30.0124C202.088 29.7596 201.895 29.561 201.642 29.4165C201.401 29.2781 201.112 29.1848 200.774 29.1366C200.437 29.0884 200.084 29.0644 199.716 29.0644C199.27 29.0644 198.772 29.1245 198.224 29.2449C197.675 29.3593 197.108 29.5278 196.523 29.7506H196.433V28.026C196.765 27.9357 197.244 27.8364 197.871 27.7281C198.498 27.6197 199.116 27.5656 199.725 27.5656C200.436 27.5656 201.054 27.6258 201.579 27.7462C202.109 27.8605 202.568 28.0591 202.954 28.342C203.334 28.6189 203.623 28.9771 203.822 29.4165C204.021 29.8559 204.12 30.4006 204.12 31.0507V37.8946ZM202.429 35.4118V32.6037C201.911 32.6338 201.299 32.6789 200.593 32.7391C199.894 32.7993 199.339 32.8866 198.929 33.001C198.441 33.1394 198.046 33.3561 197.744 33.6511C197.443 33.94 197.292 34.3403 197.292 34.8519C197.292 35.4297 197.467 35.8662 197.817 36.161C198.166 36.4501 198.7 36.5946 199.418 36.5946C200.014 36.5946 200.56 36.4803 201.054 36.2515C201.549 36.0168 202.007 35.7368 202.429 35.4118ZM216.961 37.8946H215.261V33.3531H210.206V37.8946H208.506V27.8093H210.206V31.8904H215.261V27.8093H216.961V37.8946ZM228.988 37.2627C228.295 37.5876 227.698 37.8104 227.198 37.9308C226.703 38.0571 226.209 38.1203 225.714 38.1203C224.979 38.1203 224.304 38.015 223.689 37.8045C223.074 37.5876 222.546 37.2627 222.106 36.8294C221.666 36.3957 221.322 35.848 221.075 35.1859C220.834 34.5238 220.713 33.7504 220.713 32.8655C220.713 31.2584 221.16 29.9763 222.052 29.0192C222.944 28.0561 224.165 27.5746 225.714 27.5746C226.299 27.5746 226.872 27.6558 227.433 27.8184C228 27.9809 228.518 28.1795 228.988 28.4143V30.3013H228.889C228.328 29.8739 227.774 29.5579 227.225 29.3533C226.682 29.1486 226.155 29.0463 225.642 29.0463C224.635 29.0463 223.855 29.3834 223.3 30.0576C222.751 30.7317 222.477 31.6677 222.477 32.8655C222.477 34.0634 222.751 34.9933 223.3 35.6553C223.849 36.3175 224.629 36.6487 225.642 36.6487C225.998 36.6487 226.351 36.6034 226.7 36.5132C227.056 36.4231 227.379 36.3055 227.668 36.161C227.897 36.0466 228.132 35.9111 228.374 35.7546C228.621 35.5922 228.793 35.4718 228.889 35.3936H228.988V37.2627ZM240.889 37.8946H239.189V29.272H234.133V37.8946H232.433V27.8093H240.889V37.8946ZM253.965 32.8565C253.965 34.4998 253.543 35.7971 252.699 36.748C251.855 37.6989 250.724 38.1746 249.308 38.1746C247.879 38.1746 246.742 37.6989 245.898 36.748C245.06 35.7971 244.641 34.4998 244.641 32.8565C244.641 31.2132 245.06 29.9161 245.898 28.965C246.742 28.008 247.879 27.5295 249.308 27.5295C250.724 27.5295 251.855 28.008 252.699 28.965C253.543 29.9161 253.965 31.2132 253.965 32.8565ZM252.211 32.8565C252.211 31.5503 251.954 30.5812 251.442 29.9492C250.93 29.3111 250.218 28.9921 249.308 28.9921C248.385 28.9921 247.668 29.3111 247.155 29.9492C246.649 30.5812 246.395 31.5503 246.395 32.8565C246.395 34.1205 246.652 35.0806 247.164 35.7368C247.677 36.3869 248.391 36.7118 249.308 36.7118C250.212 36.7118 250.92 36.3897 251.433 35.7459C251.951 35.0957 252.211 34.1326 252.211 32.8565ZM266.607 32.7301C266.607 33.5487 266.49 34.2981 266.254 34.9783C266.019 35.6525 265.688 36.2245 265.26 36.6939C264.862 37.1392 264.392 37.4852 263.849 37.7322C263.312 37.9729 262.743 38.0932 262.139 38.0932C261.615 38.0932 261.139 38.036 260.711 37.9217C260.289 37.8073 259.858 37.6297 259.417 37.389V41.6146H257.717V27.8093H259.417V28.8657C259.869 28.4865 260.376 28.1705 260.937 27.9177C261.503 27.6589 262.106 27.5295 262.745 27.5295C263.964 27.5295 264.91 27.9899 265.585 28.9109C266.267 29.8258 266.607 31.0989 266.607 32.7301ZM264.853 32.7752C264.853 31.5593 264.645 30.6504 264.229 30.0485C263.813 29.4466 263.173 29.1456 262.311 29.1456C261.823 29.1456 261.332 29.251 260.837 29.4616C260.343 29.6723 259.869 29.9492 259.417 30.2923V36.0076C259.9 36.2245 260.313 36.3718 260.656 36.4501C261.006 36.5283 261.401 36.5673 261.841 36.5673C262.788 36.5673 263.526 36.2483 264.057 35.6104C264.587 34.9723 264.853 34.0272 264.853 32.7752ZM277.793 29.2991H274.14V37.8946H272.439V29.2991H268.786V27.8093H277.793V29.2991ZM97.6127 55.1652C97.2809 55.3097 96.9797 55.4452 96.7084 55.5715C96.443 55.6978 96.0934 55.8304 95.6593 55.9687C95.2913 56.0831 94.8903 56.1796 94.4563 56.2578C94.0282 56.342 93.5548 56.3841 93.0364 56.3841C92.0597 56.3841 91.1705 56.2487 90.3685 55.9778C89.5728 55.701 88.8794 55.2704 88.2886 54.6866C87.7098 54.1146 87.2575 53.3894 86.932 52.5108C86.6062 51.6259 86.4435 50.5996 86.4435 49.4318C86.4435 48.3241 86.6002 47.3339 86.9137 46.4613C87.2272 45.5883 87.6795 44.8511 88.2703 44.249C88.8432 43.6652 89.5335 43.2199 90.3415 42.9129C91.1554 42.6059 92.0566 42.4525 93.0455 42.4525C93.7688 42.4525 94.4897 42.5396 95.207 42.7143C95.9306 42.8887 96.7323 43.1957 97.6127 43.6353V45.7571H97.477C96.7355 45.1371 95.9999 44.6855 95.2703 44.4027C94.5406 44.1199 93.7601 43.9782 92.9278 43.9782C92.2467 43.9782 91.6316 44.0897 91.083 44.3125C90.5404 44.529 90.055 44.869 89.627 45.3325C89.2108 45.7841 88.8854 46.3561 88.6503 47.048C88.4211 47.7343 88.3065 48.529 88.3065 49.4318C88.3065 50.3767 88.4331 51.1894 88.6865 51.8697C88.9458 52.5497 89.2773 53.1034 89.6811 53.5308C90.1032 53.9764 90.5945 54.3073 91.1554 54.5241C91.722 54.7346 92.3191 54.8403 92.9461 54.8403C93.8082 54.8403 94.6162 54.6925 95.3697 54.3978C96.1232 54.1027 96.8289 53.6603 97.4862 53.0704H97.6127V55.1652ZM108.6 56.1403H106.909V55.0659C106.758 55.168 106.553 55.3125 106.294 55.4992C106.041 55.6799 105.793 55.8241 105.552 55.9325C105.269 56.0711 104.943 56.1855 104.576 56.2757C104.208 56.3718 103.777 56.4203 103.282 56.4203C102.372 56.4203 101.6 56.1192 100.967 55.5171C100.334 54.9153 100.018 54.148 100.018 53.215C100.018 52.4504 100.18 51.8336 100.506 51.3641C100.838 50.8883 101.308 50.5153 101.917 50.2445C102.532 49.9736 103.27 49.7901 104.133 49.6936C104.995 49.5975 105.92 49.5252 106.909 49.4768V49.215C106.909 48.8297 106.839 48.5108 106.701 48.2582C106.568 48.0052 106.375 47.8066 106.122 47.662C105.881 47.5238 105.591 47.4304 105.254 47.3824C104.916 47.3339 104.563 47.3101 104.196 47.3101C103.749 47.3101 103.252 47.3701 102.703 47.4904C102.155 47.6048 101.588 47.7736 101.003 47.996H100.913V46.2715C101.245 46.1813 101.724 46.082 102.351 45.9736C102.978 45.8655 103.596 45.8111 104.205 45.8111C104.916 45.8111 105.534 45.8715 106.059 45.9918C106.589 46.1062 107.047 46.3048 107.433 46.5876C107.813 46.8645 108.103 47.2227 108.301 47.662C108.501 48.1017 108.6 48.6462 108.6 49.2964V56.1403ZM106.909 53.6574V50.8494C106.39 50.8796 105.778 50.9245 105.073 50.9848C104.374 51.0448 103.819 51.1322 103.409 51.2466C102.921 51.3852 102.526 51.6017 102.224 51.8968C101.923 52.1855 101.772 52.5859 101.772 53.0975C101.772 53.6753 101.947 54.1118 102.297 54.4066C102.646 54.6957 103.18 54.8403 103.897 54.8403C104.494 54.8403 105.04 54.7259 105.534 54.4971C106.029 54.2624 106.487 53.9824 106.909 53.6574ZM121.071 56.1403H119.37V51.5989H114.315V56.1403H112.615V46.055H114.315V50.136H119.37V46.055H121.071V56.1403ZM134.283 56.1403H132.058L127.862 51.5175H126.939V56.1403H125.239V46.055H126.939V50.4069C127.5 50.4069 127.952 50.3076 128.296 50.109C128.64 49.9041 128.932 49.5792 129.173 49.1339C129.258 48.9711 129.339 48.7999 129.418 48.6192C129.502 48.4325 129.583 48.255 129.661 48.0866C129.975 47.4062 130.367 46.8978 130.837 46.5606C131.308 46.2234 131.983 46.055 132.863 46.055H133.641V47.5178H132.89C132.414 47.5178 132.04 47.6199 131.769 47.8245C131.503 48.0234 131.262 48.3753 131.045 48.881C130.804 49.4469 130.548 49.8711 130.276 50.1539C130.011 50.4311 129.728 50.6417 129.426 50.7862L134.283 56.1403ZM144.293 47.5448H140.64V56.1403H138.94V47.5448H135.286V46.055H144.293V47.5448ZM152.152 51.075H146.509V49.441H152.152V51.075ZM166.386 56.1403H164.595V44.2852H157.876V56.1403H156.085V42.696H166.386V56.1403ZM179.074 51.2736H171.631C171.631 51.8936 171.724 52.4353 171.911 52.8989C172.098 53.3564 172.354 53.7325 172.68 54.0276C172.993 54.3164 173.364 54.5332 173.792 54.6774C174.226 54.822 174.703 54.8943 175.221 54.8943C175.909 54.8943 176.599 54.7589 177.292 54.488C177.992 54.2111 178.489 53.9403 178.784 53.6753H178.875V55.5262C178.302 55.7669 177.717 55.9687 177.12 56.1311C176.523 56.2936 175.896 56.375 175.239 56.375C173.563 56.375 172.255 55.9234 171.314 55.0206C170.373 54.1118 169.903 52.8238 169.903 51.1564C169.903 49.5069 170.352 48.1978 171.251 47.2287C172.155 46.2596 173.343 45.775 174.814 45.775C176.177 45.775 177.226 46.1722 177.961 46.9669C178.703 47.7613 179.074 48.8901 179.074 50.3529V51.2736ZM177.419 49.9736C177.413 49.0827 177.187 48.3936 176.74 47.9059C176.3 47.4182 175.628 47.1746 174.724 47.1746C173.813 47.1746 173.087 47.4424 172.544 47.9782C172.007 48.5139 171.703 49.1789 171.631 49.9736H177.419ZM189.817 47.5448H186.163V56.1403H184.463V47.5448H180.81V46.055H189.817V47.5448ZM200.777 51.2736H193.334C193.334 51.8936 193.428 52.4353 193.615 52.8989C193.801 53.3564 194.058 53.7325 194.383 54.0276C194.697 54.3164 195.068 54.5332 195.496 54.6774C195.93 54.822 196.406 54.8943 196.925 54.8943C197.612 54.8943 198.302 54.7589 198.996 54.488C199.695 54.2111 200.193 53.9403 200.488 53.6753H200.578V55.5262C200.006 55.7669 199.421 55.9687 198.824 56.1311C198.227 56.2936 197.6 56.375 196.943 56.375C195.267 56.375 193.958 55.9234 193.018 55.0206C192.077 54.1118 191.607 52.8238 191.607 51.1564C191.607 49.5069 192.056 48.1978 192.954 47.2287C193.859 46.2596 195.047 45.775 196.518 45.775C197.88 45.775 198.929 46.1722 199.665 46.9669C200.407 47.7613 200.777 48.8901 200.777 50.3529V51.2736ZM199.122 49.9736C199.116 49.0827 198.89 48.3936 198.444 47.9059C198.004 47.4182 197.332 47.1746 196.427 47.1746C195.517 47.1746 194.79 47.4424 194.248 47.9782C193.711 48.5139 193.407 49.1789 193.334 49.9736H199.122ZM212.986 50.9757C212.986 51.7943 212.868 52.5438 212.633 53.2238C212.398 53.8982 212.066 54.4701 211.638 54.9396C211.24 55.3848 210.77 55.7308 210.227 55.9778C209.691 56.2185 209.121 56.3389 208.518 56.3389C207.993 56.3389 207.517 56.2817 207.089 56.1673C206.667 56.0529 206.236 55.8753 205.796 55.6346V59.8603H204.095V46.055H205.796V47.1115C206.248 46.7322 206.755 46.416 207.315 46.1634C207.882 45.9045 208.485 45.775 209.124 45.775C210.342 45.775 211.288 46.2357 211.964 47.1564C212.645 48.0715 212.986 49.3445 212.986 50.9757ZM211.231 51.021C211.231 49.8048 211.023 48.8961 210.607 48.2943C210.191 47.6922 209.552 47.3911 208.69 47.3911C208.202 47.3911 207.71 47.4964 207.216 47.7073C206.721 47.9178 206.248 48.1946 205.796 48.5378V54.2532C206.278 54.4701 206.691 54.6174 207.035 54.6957C207.384 54.7739 207.779 54.8129 208.219 54.8129C209.166 54.8129 209.905 54.4939 210.435 53.856C210.966 53.2178 211.231 52.2729 211.231 51.021ZM223.801 47.5448C224.223 47.9662 224.543 48.4778 224.76 49.0796C224.977 49.6757 225.085 50.3767 225.085 51.1834C225.085 52.6883 224.633 53.9371 223.729 54.9304C222.824 55.9234 221.712 56.4203 220.392 56.4203C219.74 56.4203 219.141 56.3118 218.592 56.095C218.043 55.8725 217.576 55.5322 217.19 55.075C216.708 54.5031 216.346 53.7838 216.105 52.9171C215.87 52.0441 215.752 50.9817 215.752 49.7297C215.752 49.2782 215.774 48.821 215.816 48.3575C215.858 47.888 215.954 47.328 216.105 46.6778C216.226 46.1182 216.401 45.5796 216.63 45.0617C216.865 44.5441 217.142 44.1259 217.462 43.8069C217.896 43.3673 218.465 43.0153 219.171 42.7504C219.882 42.4796 220.823 42.2929 221.993 42.1904C222.469 42.1483 222.912 42.1153 223.322 42.0911C223.732 42.0613 224.1 42.0339 224.425 42.0101V43.5718C224.027 43.596 223.632 43.6203 223.241 43.6441C222.855 43.6683 222.469 43.6985 222.083 43.7346C221.311 43.8006 220.612 43.9273 219.985 44.1136C219.364 44.3003 218.909 44.541 218.619 44.836C218.299 45.155 218.058 45.5732 217.896 46.0911C217.739 46.6027 217.636 47.0904 217.588 47.5536C218.04 47.2287 218.535 46.9578 219.071 46.7413C219.614 46.5185 220.19 46.4069 220.799 46.4069C221.366 46.4069 221.911 46.5003 222.436 46.6869C222.96 46.8736 223.415 47.1596 223.801 47.5448ZM223.358 51.2827C223.358 50.169 223.09 49.3385 222.553 48.7908C222.016 48.2371 221.308 47.9599 220.428 47.9599C219.904 47.9599 219.4 48.0445 218.918 48.2129C218.435 48.3753 217.977 48.595 217.543 48.8718C217.531 49.0224 217.519 49.1999 217.507 49.4048C217.501 49.6034 217.498 49.7869 217.498 49.9553C217.498 51.0027 217.585 51.8515 217.76 52.5017C217.935 53.1518 218.182 53.6694 218.502 54.0546C218.779 54.3796 219.08 54.6115 219.406 54.7497C219.732 54.8824 220.081 54.9483 220.455 54.9483C221.366 54.9483 222.077 54.6203 222.589 53.9641C223.102 53.3083 223.358 52.4143 223.358 51.2827ZM237.231 46.055L231.334 59.8603H229.516L231.397 55.6525L227.373 46.055H229.218L232.32 53.5308L235.449 46.055H237.231ZM249.086 50.9757C249.086 51.7943 248.969 52.5438 248.734 53.2238C248.498 53.8982 248.167 54.4701 247.739 54.9396C247.341 55.3848 246.871 55.7308 246.328 55.9778C245.791 56.2185 245.222 56.3389 244.618 56.3389C244.094 56.3389 243.618 56.2817 243.19 56.1673C242.768 56.0529 242.336 55.8753 241.896 55.6346V59.8603H240.196V46.055H241.896V47.1115C242.348 46.7322 242.855 46.416 243.416 46.1634C243.982 45.9045 244.585 45.775 245.224 45.775C246.443 45.775 247.389 46.2357 248.064 47.1564C248.746 48.0715 249.086 49.3445 249.086 50.9757ZM247.332 51.021C247.332 49.8048 247.124 48.8961 246.708 48.2943C246.292 47.6922 245.652 47.3911 244.79 47.3911C244.302 47.3911 243.811 47.4964 243.316 47.7073C242.822 47.9178 242.348 48.1946 241.896 48.5378V54.2532C242.379 54.4701 242.792 54.6174 243.135 54.6957C243.485 54.7739 243.88 54.8129 244.32 54.8129C245.267 54.8129 246.005 54.4939 246.536 53.856C247.066 53.2178 247.332 52.2729 247.332 51.021ZM259.441 47.5448H254.177V56.1403H252.477V46.055H259.441V47.5448ZM269.804 56.1403H268.113V55.0659C267.962 55.168 267.757 55.3125 267.498 55.4992C267.245 55.6799 266.997 55.8241 266.756 55.9325C266.473 56.0711 266.147 56.1855 265.78 56.2757C265.412 56.3718 264.981 56.4203 264.486 56.4203C263.576 56.4203 262.804 56.1192 262.171 55.5171C261.538 54.9153 261.221 54.148 261.221 53.215C261.221 52.4504 261.384 51.8336 261.71 51.3641C262.041 50.8883 262.512 50.5153 263.121 50.2445C263.735 49.9736 264.474 49.7901 265.336 49.6936C266.198 49.5975 267.124 49.5252 268.113 49.4768V49.215C268.113 48.8297 268.044 48.5108 267.905 48.2582C267.772 48.0052 267.579 47.8066 267.326 47.662C267.085 47.5238 266.796 47.4304 266.458 47.3824C266.12 47.3339 265.768 47.3101 265.4 47.3101C264.954 47.3101 264.456 47.3701 263.907 47.4904C263.359 47.6048 262.792 47.7736 262.207 47.996H262.117V46.2715C262.448 46.1813 262.928 46.082 263.555 45.9736C264.182 45.8655 264.8 45.8111 265.409 45.8111C266.12 45.8111 266.738 45.8715 267.263 45.9918C267.793 46.1062 268.252 46.3048 268.637 46.5876C269.017 46.8645 269.307 47.2227 269.506 47.662C269.705 48.1017 269.804 48.6462 269.804 49.2964V56.1403ZM268.113 53.6574V50.8494C267.594 50.8796 266.982 50.9245 266.277 50.9848C265.577 51.0448 265.023 51.1322 264.613 51.2466C264.125 51.3852 263.729 51.6017 263.428 51.8968C263.127 52.1855 262.976 52.5859 262.976 53.0975C262.976 53.6753 263.151 54.1118 263.5 54.4066C263.85 54.6957 264.384 54.8403 265.101 54.8403C265.698 54.8403 266.244 54.7259 266.738 54.4971C267.232 54.2624 267.691 53.9824 268.113 53.6574Z" fill="#24305E"/>
<path d="M34.7039 5.50756L34.7039 5.50758C32.6866 6.9708 32.2394 9.78962 33.705 11.8036L49.0483 32.8872C50.514 34.9011 53.3374 35.3476 55.3547 33.8844L55.3547 33.8844C57.372 32.4211 57.8192 29.6023 56.3535 27.5884L41.0102 6.50475C39.5446 4.49079 36.7212 4.04433 34.7039 5.50756Z" fill="#009CBC"/>
<path d="M55.3547 26.999L55.3547 26.999C57.372 28.4623 57.8192 31.2811 56.3536 33.295L41.0103 54.3786C39.5446 56.3926 36.7212 56.8391 34.7039 55.3758L34.7039 55.3758C32.6866 53.9126 32.2394 51.0938 33.7051 49.0798L49.0484 27.9962C50.514 25.9822 53.3374 25.5358 55.3547 26.999Z" fill="#009CBC"/>
<mask id="mask0_292_2417" style="mask-type:alpha" maskUnits="userSpaceOnUse" x="32" y="4" width="29" height="36">
<path d="M34.7039 5.45653L34.7039 5.45655C32.6866 6.91978 32.2394 9.73859 33.705 11.7526L52.4002 37.442C53.8658 39.456 56.6893 39.9024 58.7065 38.4392L58.7065 38.4392C60.7238 36.9759 61.171 34.1571 59.7054 32.1432L41.0102 6.45372C39.5446 4.43976 36.7212 3.9933 34.7039 5.45653Z" fill="#009CBC"/>
</mask>
<g mask="url(#mask0_292_2417)">
<path d="M56.8835 24.8987L56.8835 24.8987C58.9008 26.3619 59.348 29.1807 57.8824 31.1947L41.0101 54.3793C39.5445 56.3933 36.721 56.8397 34.7037 55.3765L34.7037 55.3765C32.6865 53.9132 32.2393 51.0944 33.7049 49.0805L50.5772 25.8959C52.0428 23.8819 54.8662 23.4354 56.8835 24.8987Z" fill="#009CBC"/>
</g>
<path d="M50.2298 5.50755L50.2297 5.50757C48.2125 6.9708 47.7653 9.78962 49.2309 11.8036L64.5742 32.8872C66.0399 34.9011 68.8633 35.3476 70.8806 33.8844L70.8806 33.8844C72.8979 32.4211 73.3451 29.6023 71.8794 27.5884L56.5361 6.50474C55.0705 4.49078 52.247 4.04433 50.2298 5.50755Z" fill="#E4032E"/>
<path d="M70.8806 26.999L70.8806 26.999C72.8979 28.4623 73.3451 31.2811 71.8794 33.295L56.5361 54.3786C55.0705 56.3926 52.2471 56.8391 50.2298 55.3758L50.2298 55.3758C48.2125 53.9126 47.7653 51.0938 49.2309 49.0798L64.5742 27.9962C66.0399 25.9822 68.8633 25.5358 70.8806 26.999Z" fill="#E4032E"/>
<mask id="mask1_292_2417" style="mask-type:alpha" maskUnits="userSpaceOnUse" x="48" y="4" width="27" height="34">
<path d="M50.2298 5.45653L50.2297 5.45655C48.2125 6.91978 47.7653 9.73859 49.2309 11.7526L66.6579 35.6993C68.1235 37.7133 70.9469 38.1598 72.9642 36.6965L72.9642 36.6965C74.9815 35.2333 75.4287 32.4145 73.9631 30.4005L56.5361 6.45372C55.0705 4.43976 52.247 3.9933 50.2298 5.45653Z" fill="#E4032E"/>
</mask>
<g mask="url(#mask1_292_2417)">
<path d="M72.8391 24.3083L72.8391 24.3084C74.8564 25.7716 75.3036 28.5904 73.8379 30.6044L56.536 54.3794C55.0703 56.3934 52.2469 56.8398 50.2296 55.3766L50.2296 55.3766C48.2123 53.9134 47.7651 51.0945 49.2308 49.0806L66.5327 25.3055C67.9984 23.2916 70.8218 22.8451 72.8391 24.3083Z" fill="#E4032E"/>
</g>
<path d="M3.65262 5.45653L3.65259 5.45655C1.63532 6.91978 1.18813 9.73859 2.65376 11.7526L33.6749 54.3794C35.1405 56.3934 37.964 56.8398 39.9812 55.3766L39.9812 55.3766C41.9985 53.9133 42.4457 51.0945 40.9801 49.0806L9.95896 6.45372C8.49333 4.43976 5.66988 3.9933 3.65262 5.45653Z" fill="#24305E"/>
<path d="M19.1785 5.45653L19.1785 5.45655C17.1612 6.91978 16.714 9.73859 18.1796 11.7526L49.2008 54.3794C50.6664 56.3934 53.4898 56.8398 55.5071 55.3766L55.5071 55.3766C57.5244 53.9133 57.9716 51.0945 56.506 49.0806L25.4848 6.45372C24.0192 4.43976 21.1958 3.9933 19.1785 5.45653Z" fill="#24305E"/>
<path d="M95.4635 6.96556H89.7798V16.8422H86.6167V4.59713H95.4635V6.96556ZM106.865 6.01159C107.414 6.54338 107.834 7.18759 108.125 7.94415C108.422 8.70075 108.57 9.56696 108.57 10.5429C108.57 11.59 108.408 12.533 108.084 13.3718C107.76 14.2051 107.315 14.8877 106.749 15.4195C106.184 15.9513 105.503 16.3625 104.707 16.653C103.916 16.9381 103.032 17.0807 102.054 17.0807C101.532 17.0807 101.047 17.045 100.596 16.9738C100.152 16.908 99.7505 16.8257 99.3935 16.7271C99.0146 16.6229 98.6716 16.516 98.364 16.4063C98.0565 16.2912 97.8232 16.2007 97.6639 16.135V13.3636H97.9687C98.1335 13.5006 98.3338 13.6542 98.57 13.8241C98.8062 13.9886 99.0641 14.1393 99.3442 14.2764C99.6792 14.4354 100.036 14.5697 100.415 14.6793C100.794 14.7835 101.244 14.8356 101.766 14.8356C102.134 14.8356 102.527 14.7863 102.944 14.6876C103.361 14.5834 103.735 14.4107 104.064 14.1695C104.41 13.9228 104.707 13.5938 104.954 13.1826C105.206 12.7715 105.366 12.2479 105.431 11.6119H99.9702V9.2764H105.357C105.269 8.78296 105.113 8.36906 104.888 8.03461C104.663 7.70019 104.394 7.42608 104.08 7.21226C103.768 6.99843 103.424 6.84492 103.051 6.75173C102.683 6.65303 102.315 6.60369 101.947 6.60369C101.491 6.60369 101.068 6.65854 100.679 6.76819C100.294 6.87233 99.9319 7.00668 99.5913 7.17113C99.2838 7.32464 99.0093 7.48913 98.7675 7.66457C98.5313 7.84001 98.3338 7.98801 98.1746 8.10864H97.8284V5.31257C98.1307 5.18099 98.4132 5.06861 98.6768 4.97541C98.9404 4.87671 99.281 4.77257 99.6985 4.66292C100.033 4.5752 100.429 4.50391 100.885 4.4491C101.341 4.38878 101.807 4.35864 102.285 4.35864C103.23 4.35864 104.089 4.49843 104.863 4.77805C105.637 5.05766 106.305 5.46882 106.865 6.01159ZM121.684 6.96556H117.854V16.8422H114.691V6.96556H110.861V4.59713H121.684V6.96556Z" fill="#24305E"/>
</g>
<defs>
<clipPath id="clip0_292_2417">
<rect width="278" height="60" fill="white"/>
</clipPath>
</defs>
</svg>
