<svg width="278" height="60" viewBox="0 0 278 60" fill="none" xmlns="http://www.w3.org/2000/svg">
<path d="M95.5416 25.9406C96.1204 26.5184 96.5664 27.2348 96.8799 28.0895C97.1938 28.9442 97.3505 29.9555 97.3505 31.1232C97.3505 32.1585 97.1906 33.1126 96.8711 33.9854C96.5576 34.8522 96.1021 35.5956 95.5054 36.2156C94.8903 36.8535 94.1698 37.3352 93.3439 37.6602C92.524 37.9791 91.6225 38.1387 90.6398 38.1387C89.7897 38.1387 88.9817 38.0573 88.2162 37.8949C87.4504 37.7324 86.8055 37.5398 86.2808 37.317V35.3398H86.4256C86.9137 35.731 87.5288 36.044 88.2703 36.2787C89.0179 36.5075 89.8167 36.6219 90.6669 36.6219C91.4085 36.6219 92.0868 36.4924 92.7018 36.2335C93.3169 35.9686 93.8293 35.6107 94.2394 35.1591C94.6735 34.6776 94.9989 34.1358 95.2161 33.5339C95.439 32.926 95.5507 32.2367 95.5507 31.4663H88.1979V29.9043H95.46C95.3757 29.188 95.195 28.568 94.9177 28.0443C94.6401 27.5146 94.2876 27.0783 93.8595 26.7351C93.4314 26.392 92.9461 26.1392 92.4034 25.9767C91.8608 25.8082 91.282 25.7239 90.6669 25.7239C89.841 25.7239 89.0664 25.8413 88.3427 26.076C87.6191 26.3047 86.9953 26.6208 86.4705 27.0241H86.317V25.0377C86.8775 24.803 87.5407 24.6073 88.3065 24.4508C89.0724 24.2883 89.8561 24.207 90.6581 24.207C91.6949 24.207 92.6203 24.3515 93.4343 24.6404C94.2542 24.9293 94.9568 25.3627 95.5416 25.9406ZM109.323 37.8949H107.623V29.2362H103.852C103.834 29.7358 103.816 30.2173 103.798 30.6808C103.779 31.1443 103.761 31.5626 103.743 31.9358C103.701 32.941 103.632 33.7446 103.535 34.3465C103.439 34.9424 103.312 35.4391 103.155 35.8363C103.011 36.2096 102.848 36.5135 102.667 36.7482C102.492 36.977 102.302 37.1847 102.097 37.3714C101.892 37.5517 101.663 37.6872 101.41 37.7773C101.163 37.8679 100.891 37.9128 100.596 37.9128C100.494 37.9128 100.343 37.91 100.144 37.904C99.9509 37.898 99.8244 37.8949 99.7639 37.8949V36.4142H99.8543C99.9028 36.4142 99.972 36.417 100.062 36.4233C100.153 36.4293 100.228 36.4321 100.288 36.4321C100.433 36.4321 100.581 36.411 100.731 36.3689C100.888 36.3268 101.021 36.2486 101.13 36.1342C101.437 35.8331 101.684 35.3247 101.871 34.6084C102.058 33.8921 102.182 32.8568 102.242 31.5024C102.266 31.0088 102.287 30.425 102.305 29.7508C102.329 29.0706 102.35 28.4236 102.369 27.8096H109.323V37.8949ZM122.246 33.0283H114.803C114.803 33.6483 114.896 34.19 115.083 34.6535C115.27 35.111 115.526 35.4872 115.852 35.7823C116.165 36.071 116.536 36.2879 116.964 36.4321C117.398 36.5766 117.874 36.6489 118.393 36.6489C119.08 36.6489 119.771 36.5135 120.464 36.2426C121.163 35.9658 121.661 35.6949 121.956 35.43H122.047V37.2809C121.474 37.5216 120.889 37.7233 120.292 37.8858C119.695 38.0482 119.068 38.1296 118.411 38.1296C116.735 38.1296 115.426 37.678 114.486 36.7752C113.545 35.8665 113.075 34.5783 113.075 32.9109C113.075 31.2616 113.524 29.9524 114.423 28.9833C115.327 28.0143 116.515 27.5297 117.986 27.5297C119.349 27.5297 120.398 27.927 121.133 28.7215C121.875 29.516 122.246 30.6447 122.246 32.1073V33.0283ZM120.591 31.7282C120.585 30.8373 120.358 30.1481 119.912 29.6605C119.472 29.173 118.8 28.9292 117.895 28.9292C116.985 28.9292 116.259 29.197 115.716 29.7327C115.179 30.2685 114.875 30.9336 114.803 31.7282H120.591ZM135.051 37.8949H132.826L128.63 33.2721H127.707V37.8949H126.007V27.8096H127.707V32.1615C128.268 32.1615 128.72 32.0622 129.064 31.8636C129.407 31.6589 129.7 31.3339 129.941 30.8884C130.025 30.7259 130.107 30.5544 130.185 30.3738C130.269 30.1872 130.351 30.0096 130.429 29.8411C130.743 29.1609 131.135 28.6523 131.605 28.3152C132.075 27.9781 132.75 27.8096 133.631 27.8096H134.409V29.2723H133.658C133.182 29.2723 132.808 29.3746 132.536 29.5792C132.271 29.7779 132.03 30.13 131.813 30.6356C131.572 31.2014 131.315 31.6258 131.044 31.9087C130.779 32.1856 130.495 32.3963 130.194 32.5407L135.051 37.8949ZM145.432 29.2993H141.778V37.8949H140.078V29.2993H136.424V27.8096H145.432V29.2993ZM157.196 32.7304C157.196 33.549 157.079 34.2984 156.844 34.9785C156.609 35.6528 156.277 36.2247 155.849 36.6942C155.451 37.1395 154.981 37.4854 154.438 37.7324C153.902 37.9731 153.332 38.0935 152.729 38.0935C152.204 38.0935 151.728 38.0363 151.3 37.9219C150.878 37.8075 150.447 37.63 150.007 37.3893V41.6149H148.306V27.8096H150.007V28.866C150.459 28.4868 150.966 28.1707 151.526 27.9179C152.093 27.6591 152.696 27.5297 153.335 27.5297C154.553 27.5297 155.499 27.9902 156.175 28.9111C156.856 29.826 157.196 31.0991 157.196 32.7304ZM155.442 32.7755C155.442 31.5596 155.234 30.6507 154.818 30.0487C154.402 29.4468 153.763 29.1459 152.901 29.1459C152.412 29.1459 151.921 29.2512 151.427 29.4619C150.932 29.6725 150.459 29.9495 150.007 30.2925V36.0079C150.489 36.2247 150.902 36.3721 151.246 36.4503C151.595 36.5286 151.99 36.5675 152.43 36.5675C153.377 36.5675 154.116 36.2486 154.646 35.6107C155.177 34.9725 155.442 34.0275 155.442 32.7755ZM169.567 32.8567C169.567 34.5 169.145 35.7973 168.301 36.7482C167.457 37.6991 166.326 38.1749 164.91 38.1749C163.481 38.1749 162.344 37.6991 161.5 36.7482C160.662 35.7973 160.243 34.5 160.243 32.8567C160.243 31.2135 160.662 29.9163 161.5 28.9653C162.344 28.0082 163.481 27.5297 164.91 27.5297C166.326 27.5297 167.457 28.0082 168.301 28.9653C169.145 29.9163 169.567 31.2135 169.567 32.8567ZM167.813 32.8567C167.813 31.5506 167.557 30.5815 167.044 29.9495C166.532 29.3114 165.82 28.9924 164.91 28.9924C163.987 28.9924 163.27 29.3114 162.757 29.9495C162.251 30.5815 161.998 31.5506 161.998 32.8567C161.998 34.1208 162.254 35.0809 162.766 35.737C163.279 36.3872 163.993 36.7121 164.91 36.7121C165.814 36.7121 166.523 36.39 167.035 35.7461C167.553 35.0959 167.813 34.1329 167.813 32.8567ZM180.744 29.2993H177.09V37.8949H175.39V29.2993H171.737V27.8096H180.744V29.2993ZM192.509 32.7304C192.509 33.549 192.392 34.2984 192.157 34.9785C191.921 35.6528 191.59 36.2247 191.162 36.6942C190.764 37.1395 190.294 37.4854 189.751 37.7324C189.214 37.9731 188.645 38.0935 188.041 38.0935C187.517 38.0935 187.041 38.0363 186.613 37.9219C186.191 37.8075 185.759 37.63 185.319 37.3893V41.6149H183.619V27.8096H185.319V28.866C185.771 28.4868 186.278 28.1707 186.839 27.9179C187.405 27.6591 188.008 27.5297 188.647 27.5297C189.865 27.5297 190.812 27.9902 191.487 28.9111C192.169 29.826 192.509 31.0991 192.509 32.7304ZM190.755 32.7755C190.755 31.5596 190.547 30.6507 190.13 30.0487C189.715 29.4468 189.075 29.1459 188.213 29.1459C187.725 29.1459 187.234 29.2512 186.739 29.4619C186.245 29.6725 185.771 29.9495 185.319 30.2925V36.0079C185.802 36.2247 186.215 36.3721 186.558 36.4503C186.908 36.5286 187.303 36.5675 187.743 36.5675C188.69 36.5675 189.428 36.2486 189.959 35.6107C190.489 34.9725 190.755 34.0275 190.755 32.7755ZM204.12 37.8949H202.429V36.8205C202.278 36.9226 202.073 37.0672 201.814 37.2538C201.561 37.4345 201.314 37.5787 201.073 37.6872C200.789 37.8258 200.464 37.9402 200.096 38.0303C199.728 38.1265 199.297 38.1749 198.803 38.1749C197.892 38.1749 197.121 37.8738 196.487 37.2717C195.854 36.67 195.538 35.9026 195.538 34.9695C195.538 34.2051 195.701 33.5881 196.026 33.1186C196.358 32.6431 196.828 32.2699 197.437 31.999C198.052 31.7282 198.79 31.5445 199.653 31.4483C200.515 31.3519 201.44 31.2797 202.429 31.2316V30.9697C202.429 30.5845 202.36 30.2655 202.221 30.0126C202.088 29.7598 201.895 29.5612 201.642 29.4168C201.401 29.2783 201.112 29.185 200.774 29.1369C200.437 29.0887 200.084 29.0646 199.716 29.0646C199.27 29.0646 198.772 29.1248 198.224 29.2452C197.675 29.3596 197.108 29.5281 196.523 29.7508H196.433V28.0263C196.765 27.936 197.244 27.8367 197.871 27.7283C198.498 27.62 199.116 27.5658 199.725 27.5658C200.436 27.5658 201.054 27.626 201.579 27.7464C202.109 27.8607 202.568 28.0594 202.954 28.3423C203.334 28.6192 203.623 28.9773 203.822 29.4168C204.021 29.8562 204.12 30.4009 204.12 31.051V37.8949ZM202.429 35.4121V32.6039C201.911 32.634 201.299 32.6792 200.593 32.7394C199.894 32.7996 199.339 32.8869 198.929 33.0012C198.441 33.1397 198.046 33.3564 197.744 33.6513C197.443 33.9402 197.292 34.3405 197.292 34.8522C197.292 35.43 197.467 35.8665 197.817 36.1612C198.166 36.4503 198.7 36.5949 199.418 36.5949C200.014 36.5949 200.56 36.4805 201.054 36.2517C201.549 36.017 202.007 35.737 202.429 35.4121ZM216.961 37.8949H215.261V33.3533H210.206V37.8949H208.506V27.8096H210.206V31.8906H215.261V27.8096H216.961V37.8949ZM228.988 37.263C228.295 37.5879 227.698 37.8107 227.198 37.931C226.703 38.0573 226.209 38.1205 225.714 38.1205C224.979 38.1205 224.304 38.0152 223.689 37.8047C223.074 37.5879 222.546 37.263 222.106 36.8296C221.666 36.3959 221.322 35.8482 221.075 35.1861C220.834 34.5241 220.713 33.7506 220.713 32.8658C220.713 31.2586 221.16 29.9765 222.052 29.0195C222.944 28.0564 224.165 27.5748 225.714 27.5748C226.299 27.5748 226.872 27.6561 227.433 27.8186C228 27.9811 228.518 28.1798 228.988 28.4145V30.3016H228.889C228.328 29.8742 227.774 29.5582 227.225 29.3535C226.682 29.1489 226.155 29.0465 225.642 29.0465C224.635 29.0465 223.855 29.3836 223.3 30.0578C222.751 30.7319 222.477 31.6679 222.477 32.8658C222.477 34.0636 222.751 34.9936 223.3 35.6556C223.849 36.3177 224.629 36.6489 225.642 36.6489C225.998 36.6489 226.351 36.6037 226.7 36.5135C227.056 36.4233 227.379 36.3058 227.668 36.1612C227.897 36.0468 228.132 35.9114 228.374 35.7549C228.621 35.5924 228.793 35.4721 228.889 35.3938H228.988V37.263ZM240.889 37.8949H239.189V29.2723H234.133V37.8949H232.433V27.8096H240.889V37.8949ZM253.965 32.8567C253.965 34.5 253.543 35.7973 252.699 36.7482C251.855 37.6991 250.724 38.1749 249.308 38.1749C247.879 38.1749 246.742 37.6991 245.898 36.7482C245.06 35.7973 244.641 34.5 244.641 32.8567C244.641 31.2135 245.06 29.9163 245.898 28.9653C246.742 28.0082 247.879 27.5297 249.308 27.5297C250.724 27.5297 251.855 28.0082 252.699 28.9653C253.543 29.9163 253.965 31.2135 253.965 32.8567ZM252.211 32.8567C252.211 31.5506 251.954 30.5815 251.442 29.9495C250.93 29.3114 250.218 28.9924 249.308 28.9924C248.385 28.9924 247.668 29.3114 247.155 29.9495C246.649 30.5815 246.395 31.5506 246.395 32.8567C246.395 34.1208 246.652 35.0809 247.164 35.737C247.677 36.3872 248.391 36.7121 249.308 36.7121C250.212 36.7121 250.92 36.39 251.433 35.7461C251.951 35.0959 252.211 34.1329 252.211 32.8567ZM266.607 32.7304C266.607 33.549 266.49 34.2984 266.254 34.9785C266.019 35.6528 265.688 36.2247 265.26 36.6942C264.862 37.1395 264.392 37.4854 263.849 37.7324C263.312 37.9731 262.743 38.0935 262.139 38.0935C261.615 38.0935 261.139 38.0363 260.711 37.9219C260.289 37.8075 259.858 37.63 259.417 37.3893V41.6149H257.717V27.8096H259.417V28.866C259.869 28.4868 260.376 28.1707 260.937 27.9179C261.503 27.6591 262.106 27.5297 262.745 27.5297C263.964 27.5297 264.91 27.9902 265.585 28.9111C266.267 29.826 266.607 31.0991 266.607 32.7304ZM264.853 32.7755C264.853 31.5596 264.645 30.6507 264.229 30.0487C263.813 29.4468 263.173 29.1459 262.311 29.1459C261.823 29.1459 261.332 29.2512 260.837 29.4619C260.343 29.6725 259.869 29.9495 259.417 30.2925V36.0079C259.9 36.2247 260.313 36.3721 260.656 36.4503C261.006 36.5286 261.401 36.5675 261.841 36.5675C262.788 36.5675 263.526 36.2486 264.057 35.6107C264.587 34.9725 264.853 34.0275 264.853 32.7755ZM277.793 29.2993H274.14V37.8949H272.439V29.2993H268.786V27.8096H277.793V29.2993ZM97.6127 55.1654C97.2809 55.31 96.9797 55.4454 96.7084 55.5717C96.443 55.698 96.0934 55.8307 95.6593 55.9689C95.2913 56.0833 94.8903 56.1798 94.4563 56.258C94.0282 56.3423 93.5548 56.3844 93.0364 56.3844C92.0597 56.3844 91.1705 56.2489 90.3685 55.978C89.5728 55.7012 88.8794 55.2707 88.2886 54.6868C87.7098 54.1149 87.2575 53.3896 86.932 52.511C86.6062 51.6261 86.4435 50.5998 86.4435 49.4321C86.4435 48.3244 86.6002 47.3342 86.9137 46.4616C87.2272 45.5886 87.6795 44.8514 88.2703 44.2493C88.8432 43.6654 89.5335 43.2202 90.3415 42.9131C91.1554 42.6061 92.0566 42.4528 93.0455 42.4528C93.7688 42.4528 94.4897 42.5398 95.207 42.7145C95.9306 42.8889 96.7323 43.1959 97.6127 43.6356V45.7573H97.477C96.7355 45.1373 95.9999 44.6858 95.2703 44.403C94.5406 44.1202 93.7601 43.9784 92.9278 43.9784C92.2467 43.9784 91.6316 44.09 91.083 44.3128C90.5404 44.5293 90.055 44.8693 89.627 45.3328C89.2108 45.7844 88.8854 46.3563 88.6503 47.0482C88.4211 47.7345 88.3065 48.5293 88.3065 49.4321C88.3065 50.377 88.4331 51.1896 88.6865 51.87C88.9458 52.55 89.2773 53.1037 89.6811 53.531C90.1032 53.9766 90.5945 54.3075 91.1554 54.5244C91.722 54.7349 92.3191 54.8405 92.9461 54.8405C93.8082 54.8405 94.6162 54.6928 95.3697 54.398C96.1232 54.103 96.8289 53.6605 97.4862 53.0707H97.6127V55.1654ZM108.6 56.1405H106.909V55.0661C106.758 55.1682 106.553 55.3128 106.294 55.4995C106.041 55.6802 105.793 55.8244 105.552 55.9328C105.269 56.0714 104.943 56.1858 104.576 56.2759C104.208 56.3721 103.777 56.4205 103.282 56.4205C102.372 56.4205 101.6 56.1194 100.967 55.5173C100.334 54.9156 100.018 54.1482 100.018 53.2152C100.018 52.4507 100.18 51.8338 100.506 51.3644C100.838 50.8886 101.308 50.5156 101.917 50.2447C102.532 49.9738 103.27 49.7903 104.133 49.6938C104.995 49.5977 105.92 49.5254 106.909 49.477V49.2152C106.909 48.83 106.839 48.511 106.701 48.2584C106.568 48.0054 106.375 47.8068 106.122 47.6623C105.881 47.524 105.591 47.4307 105.254 47.3826C104.916 47.3342 104.563 47.3103 104.196 47.3103C103.749 47.3103 103.252 47.3703 102.703 47.4907C102.155 47.6051 101.588 47.7738 101.003 47.9963H100.913V46.2717C101.245 46.1816 101.724 46.0823 102.351 45.9738C102.978 45.8658 103.596 45.8114 104.205 45.8114C104.916 45.8114 105.534 45.8717 106.059 45.9921C106.589 46.1065 107.047 46.3051 107.433 46.5879C107.813 46.8647 108.103 47.223 108.301 47.6623C108.501 48.1019 108.6 48.6465 108.6 49.2966V56.1405ZM106.909 53.6577V50.8496C106.39 50.8798 105.778 50.9247 105.073 50.9851C104.374 51.0451 103.819 51.1324 103.409 51.2468C102.921 51.3854 102.526 51.6019 102.224 51.897C101.923 52.1858 101.772 52.5861 101.772 53.0977C101.772 53.6756 101.947 54.1121 102.297 54.4068C102.646 54.6959 103.18 54.8405 103.897 54.8405C104.494 54.8405 105.04 54.7261 105.534 54.4973C106.029 54.2626 106.487 53.9826 106.909 53.6577ZM121.071 56.1405H119.37V51.5991H114.315V56.1405H112.615V46.0552H114.315V50.1363H119.37V46.0552H121.071V56.1405ZM134.283 56.1405H132.058L127.862 51.5177H126.939V56.1405H125.239V46.0552H126.939V50.4072C127.5 50.4072 127.952 50.3079 128.296 50.1093C128.64 49.9044 128.932 49.5794 129.173 49.1342C129.258 48.9714 129.339 48.8002 129.418 48.6195C129.502 48.4328 129.583 48.2552 129.661 48.0868C129.975 47.4065 130.367 46.898 130.837 46.5609C131.308 46.2237 131.983 46.0552 132.863 46.0552H133.641V47.518H132.89C132.414 47.518 132.04 47.6202 131.769 47.8247C131.503 48.0237 131.262 48.3756 131.045 48.8812C130.804 49.4472 130.548 49.8714 130.276 50.1542C130.011 50.4314 129.728 50.6419 129.426 50.7865L134.283 56.1405ZM144.293 47.5451H140.64V56.1405H138.94V47.5451H135.286V46.0552H144.293V47.5451ZM152.152 51.0752H146.509V49.4412H152.152V51.0752ZM166.386 56.1405H164.595V44.2854H157.876V56.1405H156.085V42.6963H166.386V56.1405ZM179.074 51.2738H171.631C171.631 51.8938 171.724 52.4356 171.911 52.8991C172.098 53.3566 172.354 53.7328 172.68 54.0279C172.993 54.3166 173.364 54.5335 173.792 54.6777C174.226 54.8223 174.703 54.8945 175.221 54.8945C175.909 54.8945 176.599 54.7591 177.292 54.4882C177.992 54.2114 178.489 53.9405 178.784 53.6756H178.875V55.5265C178.302 55.7672 177.717 55.9689 177.12 56.1314C176.523 56.2938 175.896 56.3752 175.239 56.3752C173.563 56.3752 172.255 55.9237 171.314 55.0209C170.373 54.1121 169.903 52.824 169.903 51.1566C169.903 49.5072 170.352 48.198 171.251 47.2289C172.155 46.2598 173.343 45.7752 174.814 45.7752C176.177 45.7752 177.226 46.1724 177.961 46.9672C178.703 47.7616 179.074 48.8903 179.074 50.3531V51.2738ZM177.419 49.9738C177.413 49.083 177.187 48.3938 176.74 47.9061C176.3 47.4184 175.628 47.1749 174.724 47.1749C173.813 47.1749 173.087 47.4426 172.544 47.9784C172.007 48.5142 171.703 49.1791 171.631 49.9738H177.419ZM189.817 47.5451H186.163V56.1405H184.463V47.5451H180.81V46.0552H189.817V47.5451ZM200.777 51.2738H193.334C193.334 51.8938 193.428 52.4356 193.615 52.8991C193.801 53.3566 194.058 53.7328 194.383 54.0279C194.697 54.3166 195.068 54.5335 195.496 54.6777C195.93 54.8223 196.406 54.8945 196.925 54.8945C197.612 54.8945 198.302 54.7591 198.996 54.4882C199.695 54.2114 200.193 53.9405 200.488 53.6756H200.578V55.5265C200.006 55.7672 199.421 55.9689 198.824 56.1314C198.227 56.2938 197.6 56.3752 196.943 56.3752C195.267 56.3752 193.958 55.9237 193.018 55.0209C192.077 54.1121 191.607 52.824 191.607 51.1566C191.607 49.5072 192.056 48.198 192.954 47.2289C193.859 46.2598 195.047 45.7752 196.518 45.7752C197.88 45.7752 198.929 46.1724 199.665 46.9672C200.407 47.7616 200.777 48.8903 200.777 50.3531V51.2738ZM199.122 49.9738C199.116 49.083 198.89 48.3938 198.444 47.9061C198.004 47.4184 197.332 47.1749 196.427 47.1749C195.517 47.1749 194.79 47.4426 194.248 47.9784C193.711 48.5142 193.407 49.1791 193.334 49.9738H199.122ZM212.986 50.9759C212.986 51.7945 212.868 52.544 212.633 53.224C212.398 53.8984 212.066 54.4703 211.638 54.9398C211.24 55.3851 210.77 55.731 210.227 55.978C209.691 56.2188 209.121 56.3391 208.518 56.3391C207.993 56.3391 207.517 56.2819 207.089 56.1675C206.667 56.0531 206.236 55.8756 205.796 55.6349V59.8605H204.095V46.0552H205.796V47.1117C206.248 46.7324 206.755 46.4163 207.315 46.1637C207.882 45.9047 208.485 45.7752 209.124 45.7752C210.342 45.7752 211.288 46.2359 211.964 47.1566C212.645 48.0717 212.986 49.3447 212.986 50.9759ZM211.231 51.0212C211.231 49.8051 211.023 48.8963 210.607 48.2945C210.191 47.6924 209.552 47.3914 208.69 47.3914C208.202 47.3914 207.71 47.4966 207.216 47.7075C206.721 47.918 206.248 48.1949 205.796 48.538V54.2535C206.278 54.4703 206.691 54.6177 207.035 54.6959C207.384 54.7742 207.779 54.8131 208.219 54.8131C209.166 54.8131 209.905 54.4942 210.435 53.8563C210.966 53.218 211.231 52.2731 211.231 51.0212ZM223.801 47.5451C224.223 47.9665 224.543 48.478 224.76 49.0798C224.977 49.6759 225.085 50.377 225.085 51.1837C225.085 52.6886 224.633 53.9373 223.729 54.9307C222.824 55.9237 221.712 56.4205 220.392 56.4205C219.74 56.4205 219.141 56.3121 218.592 56.0952C218.043 55.8728 217.576 55.5324 217.19 55.0752C216.708 54.5033 216.346 53.784 216.105 52.9173C215.87 52.0444 215.752 50.9819 215.752 49.73C215.752 49.2784 215.774 48.8212 215.816 48.3577C215.858 47.8882 215.954 47.3282 216.105 46.678C216.226 46.1184 216.401 45.5798 216.63 45.0619C216.865 44.5444 217.142 44.1261 217.462 43.8072C217.896 43.3675 218.465 43.0156 219.171 42.7507C219.882 42.4798 220.823 42.2931 221.993 42.1907C222.469 42.1486 222.912 42.1156 223.322 42.0914C223.732 42.0616 224.1 42.0342 224.425 42.0103V43.5721C224.027 43.5963 223.632 43.6205 223.241 43.6444C222.855 43.6686 222.469 43.6987 222.083 43.7349C221.311 43.8009 220.612 43.9275 219.985 44.1138C219.364 44.3005 218.909 44.5412 218.619 44.8363C218.299 45.1552 218.058 45.5735 217.896 46.0914C217.739 46.603 217.636 47.0907 217.588 47.5538C218.04 47.2289 218.535 46.958 219.071 46.7416C219.614 46.5187 220.19 46.4072 220.799 46.4072C221.366 46.4072 221.911 46.5005 222.436 46.6872C222.96 46.8738 223.415 47.1598 223.801 47.5451ZM223.358 51.283C223.358 50.1693 223.09 49.3387 222.553 48.791C222.016 48.2373 221.308 47.9602 220.428 47.9602C219.904 47.9602 219.4 48.0447 218.918 48.2131C218.435 48.3756 217.977 48.5952 217.543 48.8721C217.531 49.0226 217.519 49.2002 217.507 49.4051C217.501 49.6037 217.498 49.7872 217.498 49.9556C217.498 51.003 217.585 51.8517 217.76 52.5019C217.935 53.1521 218.182 53.6696 218.502 54.0549C218.779 54.3798 219.08 54.6117 219.406 54.75C219.732 54.8826 220.081 54.9486 220.455 54.9486C221.366 54.9486 222.077 54.6205 222.589 53.9644C223.102 53.3086 223.358 52.4145 223.358 51.283ZM237.231 46.0552L231.334 59.8605H229.516L231.397 55.6528L227.373 46.0552H229.218L232.32 53.531L235.449 46.0552H237.231ZM249.086 50.9759C249.086 51.7945 248.969 52.544 248.734 53.224C248.498 53.8984 248.167 54.4703 247.739 54.9398C247.341 55.3851 246.871 55.731 246.328 55.978C245.791 56.2188 245.222 56.3391 244.618 56.3391C244.094 56.3391 243.618 56.2819 243.19 56.1675C242.768 56.0531 242.336 55.8756 241.896 55.6349V59.8605H240.196V46.0552H241.896V47.1117C242.348 46.7324 242.855 46.4163 243.416 46.1637C243.982 45.9047 244.585 45.7752 245.224 45.7752C246.443 45.7752 247.389 46.2359 248.064 47.1566C248.746 48.0717 249.086 49.3447 249.086 50.9759ZM247.332 51.0212C247.332 49.8051 247.124 48.8963 246.708 48.2945C246.292 47.6924 245.652 47.3914 244.79 47.3914C244.302 47.3914 243.811 47.4966 243.316 47.7075C242.822 47.918 242.348 48.1949 241.896 48.538V54.2535C242.379 54.4703 242.792 54.6177 243.135 54.6959C243.485 54.7742 243.88 54.8131 244.32 54.8131C245.267 54.8131 246.005 54.4942 246.536 53.8563C247.066 53.218 247.332 52.2731 247.332 51.0212ZM259.441 47.5451H254.177V56.1405H252.477V46.0552H259.441V47.5451ZM269.804 56.1405H268.113V55.0661C267.962 55.1682 267.757 55.3128 267.498 55.4995C267.245 55.6802 266.997 55.8244 266.756 55.9328C266.473 56.0714 266.147 56.1858 265.78 56.2759C265.412 56.3721 264.981 56.4205 264.486 56.4205C263.576 56.4205 262.804 56.1194 262.171 55.5173C261.538 54.9156 261.221 54.1482 261.221 53.2152C261.221 52.4507 261.384 51.8338 261.71 51.3644C262.041 50.8886 262.512 50.5156 263.121 50.2447C263.735 49.9738 264.474 49.7903 265.336 49.6938C266.198 49.5977 267.124 49.5254 268.113 49.477V49.2152C268.113 48.83 268.044 48.511 267.905 48.2584C267.772 48.0054 267.579 47.8068 267.326 47.6623C267.085 47.524 266.796 47.4307 266.458 47.3826C266.12 47.3342 265.768 47.3103 265.4 47.3103C264.954 47.3103 264.456 47.3703 263.907 47.4907C263.359 47.6051 262.792 47.7738 262.207 47.9963H262.117V46.2717C262.448 46.1816 262.928 46.0823 263.555 45.9738C264.182 45.8658 264.8 45.8114 265.409 45.8114C266.12 45.8114 266.738 45.8717 267.263 45.9921C267.793 46.1065 268.252 46.3051 268.637 46.5879C269.017 46.8647 269.307 47.223 269.506 47.6623C269.705 48.1019 269.804 48.6465 269.804 49.2966V56.1405ZM268.113 53.6577V50.8496C267.594 50.8798 266.982 50.9247 266.277 50.9851C265.577 51.0451 265.023 51.1324 264.613 51.2468C264.125 51.3854 263.729 51.6019 263.428 51.897C263.127 52.1858 262.976 52.5861 262.976 53.0977C262.976 53.6756 263.151 54.1121 263.5 54.4068C263.85 54.6959 264.384 54.8405 265.101 54.8405C265.698 54.8405 266.244 54.7261 266.738 54.4973C267.232 54.2626 267.691 53.9826 268.113 53.6577Z" fill="white"/>
<path d="M34.7039 5.5078L34.7039 5.50782C32.6866 6.97105 32.2394 9.78986 33.705 11.8038L49.0483 32.8874C50.514 34.9014 53.3374 35.3478 55.3547 33.8846L55.3547 33.8846C57.372 32.4214 57.8192 29.6026 56.3535 27.5886L41.0102 6.50499C39.5446 4.49103 36.7212 4.04457 34.7039 5.5078Z" fill="#009CBC"/>
<path d="M55.3547 26.999L55.3547 26.999C57.372 28.4623 57.8192 31.2811 56.3536 33.295L41.0103 54.3786C39.5446 56.3926 36.7212 56.8391 34.7039 55.3758L34.7039 55.3758C32.6866 53.9126 32.2394 51.0938 33.7051 49.0798L49.0484 27.9962C50.514 25.9822 53.3374 25.5358 55.3547 26.999Z" fill="#009CBC"/>
<mask id="mask0_503_471" style="mask-type:alpha" maskUnits="userSpaceOnUse" x="32" y="4" width="29" height="36">
<path d="M34.7039 5.45653L34.7039 5.45655C32.6866 6.91978 32.2394 9.73859 33.705 11.7526L52.4002 37.442C53.8658 39.456 56.6893 39.9024 58.7065 38.4392L58.7065 38.4392C60.7238 36.9759 61.171 34.1571 59.7054 32.1432L41.0102 6.45372C39.5446 4.43976 36.7212 3.9933 34.7039 5.45653Z" fill="#009CBC"/>
</mask>
<g mask="url(#mask0_503_471)">
<path d="M56.8835 24.8984L56.8835 24.8984C58.9008 26.3617 59.348 29.1805 57.8824 31.1944L41.0101 54.3791C39.5445 56.393 36.721 56.8395 34.7037 55.3762L34.7037 55.3762C32.6865 53.913 32.2393 51.0942 33.7049 49.0802L50.5772 25.8956C52.0428 23.8817 54.8662 23.4352 56.8835 24.8984Z" fill="#009CBC"/>
</g>
<path d="M50.2298 5.5078L50.2297 5.50782C48.2125 6.97105 47.7653 9.78986 49.2309 11.8038L64.5742 32.8874C66.0399 34.9014 68.8633 35.3478 70.8806 33.8846L70.8806 33.8846C72.8979 32.4214 73.3451 29.6026 71.8794 27.5886L56.5361 6.50499C55.0705 4.49103 52.247 4.04457 50.2298 5.5078Z" fill="#E4032E"/>
<path d="M70.8806 26.999L70.8806 26.999C72.8979 28.4623 73.3451 31.2811 71.8794 33.295L56.5361 54.3786C55.0705 56.3926 52.2471 56.8391 50.2298 55.3758L50.2298 55.3758C48.2125 53.9126 47.7653 51.0938 49.2309 49.0798L64.5742 27.9962C66.0399 25.9822 68.8633 25.5358 70.8806 26.999Z" fill="#E4032E"/>
<mask id="mask1_503_471" style="mask-type:alpha" maskUnits="userSpaceOnUse" x="48" y="4" width="27" height="34">
<path d="M50.2298 5.45653L50.2297 5.45655C48.2125 6.91978 47.7653 9.73859 49.2309 11.7526L66.6579 35.6993C68.1235 37.7133 70.9469 38.1598 72.9642 36.6965L72.9642 36.6965C74.9815 35.2333 75.4287 32.4145 73.9631 30.4005L56.5361 6.45372C55.0705 4.43976 52.247 3.9933 50.2298 5.45653Z" fill="#E4032E"/>
</mask>
<g mask="url(#mask1_503_471)">
<path d="M72.8391 24.3081L72.8391 24.3081C74.8564 25.7713 75.3036 28.5902 73.8379 30.6041L56.536 54.3792C55.0703 56.3931 52.2469 56.8396 50.2296 55.3764L50.2296 55.3763C48.2123 53.9131 47.7651 51.0943 49.2308 49.0803L66.5327 25.3053C67.9984 23.2913 70.8218 22.8449 72.8391 24.3081Z" fill="#E4032E"/>
</g>
<path d="M3.65262 5.45653L3.65259 5.45655C1.63532 6.91978 1.18813 9.73859 2.65376 11.7526L33.6749 54.3794C35.1405 56.3934 37.964 56.8398 39.9812 55.3766L39.9812 55.3766C41.9985 53.9133 42.4457 51.0945 40.9801 49.0806L9.95896 6.45372C8.49333 4.43976 5.66988 3.9933 3.65262 5.45653Z" fill="white"/>
<path d="M19.1785 5.45653L19.1785 5.45655C17.1612 6.91978 16.714 9.73859 18.1796 11.7526L49.2008 54.3794C50.6664 56.3934 53.4898 56.8398 55.5071 55.3766L55.5071 55.3766C57.5244 53.9133 57.9716 51.0945 56.506 49.0806L25.4848 6.45372C24.0192 4.43976 21.1958 3.9933 19.1785 5.45653Z" fill="white"/>
<path d="M95.4635 6.96531H89.7798V16.8419H86.6167V4.59689H95.4635V6.96531ZM106.865 6.01135C107.414 6.54314 107.834 7.18735 108.125 7.94391C108.422 8.7005 108.57 9.56671 108.57 10.5426C108.57 11.5897 108.408 12.5328 108.084 13.3716C107.76 14.2049 107.315 14.8875 106.749 15.4192C106.184 15.951 105.503 16.3622 104.707 16.6528C103.916 16.9379 103.032 17.0804 102.054 17.0804C101.532 17.0804 101.047 17.0448 100.596 16.9735C100.152 16.9077 99.7505 16.8255 99.3935 16.7268C99.0146 16.6226 98.6716 16.5157 98.364 16.4061C98.0565 16.291 97.8232 16.2005 97.6639 16.1347V13.3633H97.9687C98.1335 13.5004 98.3338 13.6539 98.57 13.8238C98.8062 13.9883 99.0641 14.1391 99.3442 14.2762C99.6792 14.4351 100.036 14.5695 100.415 14.6791C100.794 14.7833 101.244 14.8353 101.766 14.8353C102.134 14.8353 102.527 14.786 102.944 14.6873C103.361 14.5832 103.735 14.4105 104.064 14.1692C104.41 13.9225 104.707 13.5936 104.954 13.1824C105.206 12.7712 105.366 12.2476 105.431 11.6117H99.9702V9.27615H105.357C105.269 8.78271 105.113 8.36882 104.888 8.03436C104.663 7.69994 104.394 7.42584 104.08 7.21201C103.768 6.99819 103.424 6.84468 103.051 6.75149C102.683 6.65278 102.315 6.60345 101.947 6.60345C101.491 6.60345 101.068 6.65829 100.679 6.76794C100.294 6.87208 99.9319 7.00643 99.5913 7.17089C99.2838 7.3244 99.0093 7.48889 98.7675 7.66433C98.5313 7.83977 98.3338 7.98777 98.1746 8.1084H97.8284V5.31233C98.1307 5.18075 98.4132 5.06836 98.6768 4.97517C98.9404 4.87647 99.281 4.77233 99.6985 4.66268C100.033 4.57496 100.429 4.50366 100.885 4.44885C101.341 4.38854 101.807 4.3584 102.285 4.3584C103.23 4.3584 104.089 4.49819 104.863 4.7778C105.637 5.05742 106.305 5.46857 106.865 6.01135ZM121.684 6.96531H117.854V16.8419H114.691V6.96531H110.861V4.59689H121.684V6.96531Z" fill="white"/>
</svg>
