<svg width="20" height="20" viewBox="0 0 20 20" fill="none" xmlns="http://www.w3.org/2000/svg">
<path d="M11.078 1.82512e-06C11.372 1.82512e-06 11.635 0.183 11.734 0.456996L12.4399 2.41397C12.6929 2.47697 12.9099 2.53997 13.0939 2.60597C13.2949 2.67797 13.5539 2.78697 13.8739 2.93597L15.5178 2.06598C15.652 1.99488 15.8056 1.96922 15.9556 1.99284C16.1057 2.01646 16.244 2.08809 16.3498 2.19698L17.7958 3.69196C17.9877 3.89095 18.0417 4.18195 17.9337 4.43595L17.1628 6.24293C17.2908 6.47792 17.3928 6.67892 17.4708 6.84692C17.5548 7.02992 17.6588 7.28191 17.7828 7.60691L19.5797 8.3769C19.8497 8.4919 20.0167 8.7619 19.9987 9.05089L19.8667 11.1259C19.8577 11.2607 19.8093 11.3899 19.7275 11.4974C19.6457 11.605 19.5342 11.6861 19.4067 11.7309L17.7048 12.3359C17.6558 12.5709 17.6048 12.7718 17.5508 12.9418C17.4637 13.2044 17.3642 13.4627 17.2528 13.7158L18.1077 15.6058C18.1681 15.7386 18.1843 15.8872 18.1541 16.0299C18.1239 16.1726 18.0488 16.3019 17.9397 16.3988L16.3138 17.8508C16.2067 17.946 16.0731 18.0062 15.9308 18.0234C15.7886 18.0405 15.6445 18.0138 15.5178 17.9468L13.8419 17.0588C13.5797 17.1976 13.3092 17.3202 13.0319 17.4258L12.2999 17.6998L11.65 19.4998C11.6018 19.6316 11.5149 19.7458 11.4007 19.8273C11.2865 19.9089 11.1503 19.954 11.01 19.9568L9.11005 19.9998C8.96602 20.0035 8.82436 19.9626 8.70456 19.8825C8.58475 19.8025 8.49271 19.6873 8.44108 19.5528L7.6751 17.5258C7.41376 17.4365 7.155 17.3398 6.89913 17.2358C6.68985 17.1452 6.48374 17.0475 6.28115 16.9428L4.38122 17.7548C4.25603 17.8082 4.11801 17.8241 3.98397 17.8004C3.84993 17.7768 3.72564 17.7148 3.62624 17.6218L2.22029 16.3028C2.11562 16.205 2.04433 16.0768 2.01651 15.9363C1.9887 15.7958 2.00576 15.6501 2.0653 15.5198L2.88227 13.7398C2.77362 13.529 2.67288 13.3142 2.58028 13.0958C2.47218 12.8286 2.37214 12.5581 2.28029 12.2849L0.490351 11.7399C0.344856 11.6959 0.217954 11.6051 0.129353 11.4816C0.0407512 11.3581 -0.00459114 11.2088 0.000367456 11.0569L0.070365 9.13589C0.0753474 9.01055 0.1145 8.88897 0.183589 8.78427C0.252678 8.67958 0.349074 8.59577 0.462352 8.5419L2.34029 7.63991C2.42728 7.32091 2.50328 7.07292 2.57028 6.89192C2.66462 6.65017 2.76938 6.41261 2.88427 6.17993L2.0703 4.45995C2.00852 4.32933 1.98977 4.18249 2.01672 4.04054C2.04367 3.89859 2.11494 3.76884 2.22029 3.66996L3.62424 2.34397C3.72266 2.25115 3.8458 2.18874 3.97886 2.16426C4.11191 2.13977 4.2492 2.15426 4.37422 2.20598L6.27215 2.98997C6.48214 2.84997 6.67214 2.73697 6.84413 2.64597C7.04912 2.53697 7.32311 2.42297 7.6681 2.29997L8.32808 0.458996C8.37687 0.324266 8.46606 0.207881 8.58346 0.125731C8.70087 0.0435821 8.84077 -0.000326247 8.98406 1.82512e-06H11.078Z" fill="white"/>
<path d="M11.078 1.82512e-06C11.372 1.82512e-06 11.635 0.183 11.734 0.456996L12.4399 2.41397C12.6929 2.47697 12.9099 2.53997 13.0939 2.60597C13.2949 2.67797 13.5539 2.78697 13.8739 2.93597L15.5178 2.06598C15.652 1.99488 15.8056 1.96922 15.9556 1.99284C16.1057 2.01646 16.244 2.08809 16.3498 2.19698L17.7958 3.69196C17.9877 3.89095 18.0417 4.18195 17.9337 4.43595L17.1628 6.24293C17.2908 6.47792 17.3928 6.67892 17.4708 6.84692C17.5548 7.02992 17.6588 7.28191 17.7828 7.60691L19.5797 8.3769C19.8497 8.4919 20.0167 8.7619 19.9987 9.05089L19.8667 11.1259C19.8577 11.2607 19.8093 11.3899 19.7275 11.4974C19.6457 11.605 19.5342 11.6861 19.4067 11.7309L17.7048 12.3359C17.6558 12.5709 17.6048 12.7718 17.5508 12.9418C17.4637 13.2044 17.3642 13.4627 17.2528 13.7158L18.1077 15.6058C18.1681 15.7386 18.1843 15.8872 18.1541 16.0299C18.1239 16.1726 18.0488 16.3019 17.9397 16.3988L16.3138 17.8508C16.2067 17.946 16.0731 18.0062 15.9308 18.0234C15.7886 18.0405 15.6445 18.0138 15.5178 17.9468L13.8419 17.0588C13.5797 17.1976 13.3092 17.3202 13.0319 17.4258L12.2999 17.6998L11.65 19.4998C11.6018 19.6316 11.5149 19.7458 11.4007 19.8273C11.2865 19.9089 11.1503 19.954 11.01 19.9568L9.11005 19.9998C8.96602 20.0035 8.82436 19.9626 8.70456 19.8825C8.58475 19.8025 8.49271 19.6873 8.44108 19.5528L7.6751 17.5258C7.41376 17.4365 7.155 17.3398 6.89913 17.2358C6.68985 17.1452 6.48374 17.0475 6.28115 16.9428L4.38122 17.7548C4.25603 17.8082 4.11801 17.8241 3.98397 17.8004C3.84993 17.7768 3.72564 17.7148 3.62624 17.6218L2.22029 16.3028C2.11562 16.205 2.04433 16.0768 2.01651 15.9363C1.9887 15.7958 2.00576 15.6501 2.0653 15.5198L2.88227 13.7398C2.77362 13.529 2.67288 13.3142 2.58028 13.0958C2.47218 12.8286 2.37214 12.5581 2.28029 12.2849L0.490351 11.7399C0.344856 11.6959 0.217954 11.6051 0.129353 11.4816C0.0407512 11.3581 -0.00459114 11.2088 0.000367456 11.0569L0.070365 9.13589C0.0753475 9.01055 0.1145 8.88896 0.183589 8.78427C0.252678 8.67958 0.349074 8.59577 0.462352 8.5419L2.34029 7.63991C2.42728 7.32091 2.50328 7.07292 2.57028 6.89192C2.66462 6.65017 2.76938 6.41261 2.88427 6.17993L2.0703 4.45995C2.00852 4.32933 1.98977 4.18249 2.01672 4.04054C2.04367 3.89859 2.11494 3.76884 2.22029 3.66996L3.62424 2.34397C3.72266 2.25115 3.8458 2.18874 3.97886 2.16426C4.11191 2.13977 4.2492 2.15426 4.37422 2.20598L6.27215 2.98997C6.48214 2.84997 6.67214 2.73697 6.84413 2.64597C7.04912 2.53697 7.32312 2.42297 7.6681 2.29997L8.32808 0.458996C8.37687 0.324266 8.46606 0.207881 8.58346 0.125731C8.70087 0.0435821 8.84077 -0.000326247 8.98406 1.82512e-06H11.078ZM10.024 7.01892C8.35708 7.01892 7.00613 8.3539 7.00613 10.0019C7.00613 11.6499 8.35708 12.9858 10.024 12.9858C11.69 12.9858 13.0409 11.6499 13.0409 10.0019C13.0409 8.3539 11.691 7.01892 10.024 7.01892Z" fill="#DADADA"/>
</svg>
