<?xml version="1.0" encoding="utf-8"?>

<!DOCTYPE svg PUBLIC "-//W3C//DTD SVG 1.1//EN" "http://www.w3.org/Graphics/SVG/1.1/DTD/svg11.dtd">
<!-- Uploaded to: SVG Repo, www.svgrepo.com, Generator: SVG Repo Mixer Tools -->
<svg height="800px" width="800px" version="1.1" id="_x32_" xmlns="http://www.w3.org/2000/svg" xmlns:xlink="http://www.w3.org/1999/xlink" 
	 viewBox="0 0 512 512"  xml:space="preserve">
<style type="text/css">
	.st0{fill:#000000;}
</style>
<g>
	<path class="st0" d="M116.738,231.551c0,23.245,14.15,43.315,34.513,49.107c15.262,42.368,55.574,70.776,100.582,70.776
		s85.32-28.408,100.58-70.776c20.365-5.792,34.515-25.854,34.515-49.107c0-15.691-6.734-30.652-18.061-40.248l1.661-8.921
		c0-3.323-0.229-6.568-0.491-9.821l-0.212-2.593l-2.213,1.374c-30.871,19.146-80.885,27.71-116.754,27.71
		c-34.85,0-83.895-8.214-114.902-26.568l-2.259-0.59l-0.188,2.554c-0.192,2.632-0.384,5.256-0.357,8.23l1.632,8.649
		C123.466,200.923,116.738,215.876,116.738,231.551z"/>
	<path class="st0" d="M356.151,381.077c-9.635-5.97-18.734-11.607-26.102-17.43l-0.937-0.738l-0.972,0.691
		c-6.887,4.914-31.204,30.17-51.023,51.172l-10.945-21.273l5.697-4.076v-20.854h-40.07v20.854l5.697,4.076l-10.949,21.281
		c-19.825-21.009-44.154-46.265-51.034-51.18l-0.973-0.691l-0.937,0.738c-7.368,5.823-16.469,11.46-26.102,17.43
		c-30.029,18.61-64.062,39.697-64.062,77.344c0,22.244,52.241,53.579,168.388,53.579c116.146,0,168.388-31.335,168.388-53.579
		C420.213,420.774,386.178,399.687,356.151,381.077z"/>
	<path class="st0" d="M131.67,131.824c0,18.649,56.118,42.306,119.188,42.306s119.188-23.656,119.188-42.306v-25.706l43.503-17.702
		v55.962c-5.068,0.792-8.964,5.186-8.964,10.45c0,4.503,2.966,8.432,7.242,9.852l-8.653,57.111h40.704l-8.651-57.111
		c4.27-1.421,7.232-5.35,7.232-9.852c0-5.295-3.919-9.697-9.014-10.466l-0.21-67.197c0.357-0.621,0.357-1.266,0.357-1.607
		c0-0.342,0-0.978-0.149-0.978h-0.002c-0.262-2.446-2.011-4.612-4.56-5.652l-11.526-4.72L267.551,3.238
		C262.361,1.118,256.59,0,250.858,0s-11.502,1.118-16.69,3.238L72.834,68.936c-2.863,1.172-4.713,3.773-4.713,6.622
		c0,2.842,1.848,5.443,4.716,6.63l58.833,23.928V131.824z"/>
</g>
</svg>